<?xml version="1.0" encoding="utf-8"?>
<!-- Generator: Adobe Illustrator 24.2.3, SVG Export Plug-In . SVG Version: 6.00 Build 0)  -->
<svg version="1.1" id="Layer_1" xmlns="http://www.w3.org/2000/svg" xmlns:xlink="http://www.w3.org/1999/xlink" x="0px" y="0px"
	 viewBox="0 0 512 512" style="enable-background:new 0 0 512 512;" xml:space="preserve">
<style type="text/css">
	.st0{fill:#FDB515;}
	.st1{fill:#FFD200;}
	.st2{fill:#EBEBEC;}
</style>
<g>
	<path class="st0" d="M287.7,244.8c36.2-4.5,71.9,10,94.8,38.2c1.7,2.1,4.7,2.5,6.8,1c10.4-7.6,19.3-17.1,26.3-28
		c43.6-68.1-4.8-160-87.6-160c-54,0-98.6,41.4-103.5,94.2c-0.2,2.1,1,4.2,2.9,5c22.6,10,41.9,26.5,55.5,47.4
		C283.9,244.2,285.8,245,287.7,244.8L287.7,244.8z"/>
	<path class="st1" d="M328,80c8.8,0,16-7.2,16-16V32c0-8.8-7.2-16-16-16s-16,7.2-16,16v32C312,72.8,319.2,80,328,80z"/>
	<path class="st1" d="M496,184h-32c-8.8,0-16,7.2-16,16s7.2,16,16,16h32c8.8,0,16-7.2,16-16S504.8,184,496,184z"/>
	<path class="st1" d="M435.5,284.9c-6.2-6.2-16.4-6.2-22.6,0c-6.2,6.2-6.2,16.4,0,22.6l22.6,22.6c3.1,3.1,7.2,4.7,11.3,4.7
		c14.1,0,21.4-17.2,11.3-27.3L435.5,284.9z"/>
	<path class="st1" d="M220.5,115.1c6.2,6.2,16.4,6.2,22.6,0s6.2-16.4,0-22.6l-22.6-22.6c-6.2-6.2-16.4-6.2-22.6,0
		c-6.2,6.2-6.2,16.4,0,22.6L220.5,115.1z"/>
	<path class="st1" d="M424.2,119.8c4.1,0,8.2-1.6,11.3-4.7l22.6-22.6c6.2-6.2,6.2-16.4,0-22.6c-6.2-6.2-16.4-6.2-22.6,0l-22.6,22.6
		C402.7,102.6,410,119.8,424.2,119.8L424.2,119.8z"/>
	<path class="st2" d="M372.5,364c12.3-60.8-51.3-107.6-105.3-79.9c-11.9-39.1-48.2-67.6-91.2-67.6c-55.8,0-99.9,47.8-94.9,103.9
		C35.7,323.8,0,361.7,0,408c0,48.5,39.3,88,88,88h286c36.5,0,66-29.5,66-66C440,395.2,412.6,364,372.5,364z"/>
</g>
</svg>
